# xmcd CD database file
#
# Track frame offsets:
#	182
#	18925
#	33225
#	56092
#	69085
#	85825
#	95292
#	113315
#	121270
#	129545
#
# Disc length: 1852 seconds
#
# Revision: 0
# Processed by: cddbd v1.5.1PL2 Copyright (c) Steve Scherf et al.
# Submitted via: CDex 1.51
#
DISCID=6e073a0a
DTITLE=Count Basie And His Orchestra - One O'Clock Jump And Other Hits
DYEAR=1998
DGENRE=Jazz
TTITLE0=One O'clock Jump
TTITLE1=Do Nothin' Till You Hear From Me
TTITLE2=Rock-A-Bye Basie
TTITLE3=Avenue C
TTITLE4=Jumpin' At The Woodside
TTITLE5=Dinah
TTITLE6=Gee Baby Ain't I Good To You
TTITLE7=Lady Be Good
TTITLE8=Baby Won't You Please Come Home
TTITLE9=Basie Boogie
EXTD=YEAR: 1998
EXTT0=
EXTT1=
EXTT2=
EXTT3=
EXTT4=
EXTT5=
EXTT6=
EXTT7=
EXTT8=
EXTT9=
PLAYORDER=
